<svg width="49" height="32" viewBox="0 0 49 32" fill="none" xmlns="http://www.w3.org/2000/svg">
<rect x="1.53125" y="6.09521" width="44.4062" height="19.8095" fill="white"/>
<path d="M42.003 17.9583H39.0681C39.2666 17.4444 39.7345 16.2014 40.4718 14.2292L40.5356 14.0417C40.5923 13.9028 40.6632 13.7222 40.7483 13.5C40.8333 13.2778 40.8971 13.0972 40.9397 12.9583L41.1949 14.1042L42.003 17.9583ZM11.293 16.6042L10.0595 10.4583C9.9035 9.70833 9.37182 9.33333 8.46441 9.33333H2.76476L2.72222 9.60417C7.13166 10.7014 9.98857 13.0347 11.293 16.6042ZM15.0998 9.33333L11.6545 18.4583L11.293 16.6042C10.9243 15.6319 10.3218 14.7326 9.48524 13.9063C8.64873 13.0799 7.72005 12.4653 6.69922 12.0625L9.57031 22.6875H13.2921L18.8429 9.33333H15.0998ZM18.056 22.7083H21.5864L23.7982 9.33333H20.2678L18.056 22.7083ZM34.3893 9.66667C33.411 9.29167 32.3547 9.10417 31.2205 9.10417C29.4766 9.10417 28.0517 9.51389 26.9457 10.3333C25.8398 11.1528 25.2798 12.2153 25.2656 13.5208C25.2514 14.9375 26.2794 16.1458 28.3494 17.1458C29.0299 17.4653 29.5049 17.75 29.7743 18C30.0437 18.25 30.1784 18.5208 30.1784 18.8125C30.1784 19.2292 29.9657 19.5486 29.5404 19.7708C29.115 19.9931 28.6259 20.1042 28.0729 20.1042C26.8536 20.1042 25.7477 19.875 24.7552 19.4167L24.2873 19.1875L23.7982 22.1875C24.8474 22.6597 26.1589 22.8958 27.7326 22.8958C29.5758 22.9097 31.0539 22.5 32.1669 21.6667C33.2799 20.8333 33.8506 19.7222 33.8789 18.3333C33.8789 16.8611 32.8864 15.6528 30.9015 14.7083C30.2067 14.3611 29.7034 14.0694 29.3915 13.8333C29.0796 13.5972 28.9236 13.3333 28.9236 13.0417C28.9236 12.7361 29.0973 12.4688 29.4447 12.2396C29.792 12.0104 30.2918 11.8958 30.944 11.8958C31.9365 11.8819 32.8155 12.0486 33.5812 12.3958L33.9002 12.5625L34.3893 9.66667ZM43.428 9.33333H40.7057C39.7841 9.33333 39.1674 9.70833 38.8555 10.4583L33.6237 22.7083H37.3242L38.0686 20.7083H42.5773C42.6481 21.0139 42.7899 21.6806 43.0026 22.7083H46.2778L43.428 9.33333ZM49 2.66667V29.3333C49 30.0556 48.7306 30.6806 48.1918 31.2083C47.6531 31.7361 47.015 32 46.2778 32H2.72222C1.98495 32 1.34693 31.7361 0.80816 31.2083C0.269387 30.6806 0 30.0556 0 29.3333V2.66667C0 1.94444 0.269387 1.31944 0.80816 0.791667C1.34693 0.263889 1.98495 0 2.72222 0H46.2778C47.015 0 47.6531 0.263889 48.1918 0.791667C48.7306 1.31944 49 1.94444 49 2.66667Z" fill="#1A1F71"/>
</svg>
